<svg version="1.2" xmlns="http://www.w3.org/2000/svg" viewBox="0 0 570 570" width="570" height="570">
	<title>nahmias-logo-svg</title>
	<defs>
		<radialGradient id="g1" cx="68.6" cy="406.1" r="281.7" gradientUnits="userSpaceOnUse">
			<stop offset="0" stop-color="#e1081b"/>
			<stop offset=".4" stop-color="#1b181c"/>
		</radialGradient>
		<linearGradient id="g2" x1="60.1" y1="287.9" x2="109.8" y2="285.3" gradientUnits="userSpaceOnUse">
			<stop offset=".1" stop-color="#e1081b"/>
			<stop offset=".7" stop-color="#1b181c"/>
		</linearGradient>
		<linearGradient id="g3" x1="85.8" y1="177.6" x2="100.5" y2="171.6" gradientUnits="userSpaceOnUse">
			<stop offset="0" stop-color="#e1081b"/>
			<stop offset="1" stop-color="#1b181c"/>
		</linearGradient>
	</defs>
	<style>
		.s0 { fill: #ffffff } 
		.s1 { fill: #e1081b } 
		.s2 { fill: #1b181c } 
		.s3 { fill: url(#g1) } 
		.s4 { fill: url(#g2) } 
		.s5 { fill: url(#g3) } 
		.s6 { fill: none;stroke: #1b181c;stroke-width: 3 } 
	</style>
	<g id="Layer">
		<g id="Layer">
			<path id="Layer" class="s0" d="m22.1 84.9h523.5v374.1h-523.5z"/>
			<g id="Layer">
				<g id="Layer">
					<path id="Layer" class="s1" d="m419.6 161.9h8.4v30.2h-4.1v-26.4h-5.4l1.1-3.8z"/>
					<path id="Layer" class="s1" d="m449.3 183c-6.7-0.1-10.2-4.7-10.2-10.8 0-5.6 4.7-10.8 11.1-10.8 6 0 10.8 4.7 10.8 10.7 0 4-1.8 6.5-3.9 9.6l-7.4 10.4h-5l9.4-13.2c1.7-2.5 2.8-4.2 2.8-7.1 0-3.6-3.1-6.6-6.8-6.6-3.7 0-6.9 3.1-6.9 6.9 0 5.1 3.7 7.6 8.5 7.5z"/>
					<path id="Layer" class="s1" d="m484.1 161.9v3.8h-11.6v7.9h3.6c6.5 0 10.8 3.1 10.8 9.4 0 4.6-3.4 9.1-8.9 9.1h-11v-3.8h9.9c3.7 0 5.6-2.2 5.6-5.4 0-3.5-1.9-5.6-6.6-5.6h-7.6v-15.4z"/>
					<path id="Layer" class="s1" d="m493.1 192.1v-3.8h10c3.9 0 5.9-2.6 5.9-5.7 0-3-2.5-5.2-7-5.2h-4.7v-3l9.4-8.7h-12.9v-3.8h13q4.3 0 4.3 3.3c0 2.1-1.7 3.3-3.6 5l-4.1 3.4c5.6 0.1 9.8 3.4 9.8 8.9 0 5.7-3.9 9.6-9 9.6h-11.1z"/>
					<path id="Layer" fill-rule="evenodd" class="s2" d="m442.6 141.3v0.1c0 5-6.1 9.7-9.5 11.4-2.1 1-4.6 1.6-5.9 1.8-0.5 0.1-1 0.2-1.2 0.4-0.2 0.2-0.6 0.4-1.2 0.4-1.5 0-2.8-0.8-3.6-1.7-0.6-0.8-0.7-1.5-0.6-2.1 0.1-0.4 0.3-0.7 0.5-0.9 0.3-0.2 0.4-0.4 0.4-1 0.1-2 1.5-6.2 5.1-13.6 0.3-0.6 0.3-0.8-0.1-0.8-1.6 0-6.8 1.1-9.4 3.1-1.3 1-2 2.2-2 2.8 0 0.7 0.2 1.2 0.7 1.8 0.4 0.3 0.1 0.7-0.4 0.7-1.6 0-2.9-1.2-2.9-2.4 0-2.1 2.8-4.6 6.8-6.3 2.8-1.2 7.1-1.9 8.5-1.9 0.4 0 0.5-0.2 0.7-0.5 0.7-1.1 2.2-2.3 3.6-2.3 0.8 0 1.4 0.5 1.4 1.1 0 0.4-0.2 0.6-0.4 0.7-0.3 0.2-0.7 0.3-1.1 0.7-0.3 0.3-0.2 0.4 0.2 0.4 3.4 0.3 6.4 1.4 8.2 3.1 1.3 1.1 2.2 3.3 2.2 5zm-3.3 0.4c0-1.6-0.6-3.5-2.4-4.7-1-0.7-3.2-1.7-5.9-1.7-0.5 0-0.7 0.2-1.2 1-1.6 3.1-5.1 11.1-5.5 13.3-0.1 0.8-0.1 1.6 0.3 2.2 0.3 0.6 1 0.9 1.6 0.9 0.6 0 1.3 0 2.2-0.3 0.6-0.2 1.5-0.5 2.4-0.9 2.5-1 8.5-5 8.5-9.8z"/>
					<path id="Layer" fill-rule="evenodd" class="s2" d="m443.5 151.1v-0.1c0-1.8 1.5-5.2 3.7-8.1 0.9-1.2 4.1-4.8 6.1-4.8 0.8 0 1.2 0.5 1.2 0.9 0.1 0.1 0.2 0.3 0.7 0.4 1.3 0 2.3 0.9 2.3 2.3 0 1.4-0.8 3-1.9 4-1.5 1.4-3.6 2.6-6.5 2.6-0.5 0-0.9-0.1-1.3-0.4-0.2-0.1-0.3-0.1-0.4 0.2-0.3 0.5-0.8 1.7-0.8 2.6 0 1.5 1 2.2 2.5 2.2 2.7 0 7.7-1.6 14.2-7.4 0.5-0.4 0.9-0.4 1-0.1 0.2 0.4-0.1 0.9-0.6 1.5-4.8 5.4-11.6 8.4-16 8.4-2 0-4.2-1.5-4.2-4.2zm5.6-4.9h0.1c2.7 0 5.3-1.9 5.4-3.7 0-1.2-0.8-1.8-1.5-1.8-1.5 0-3.7 3.2-4.6 5-0.2 0.3-0.1 0.5 0.6 0.5z"/>
					<path id="Layer" class="s2" d="m471.4 138.4q1.3 0 2 0.3c0.6 0.3 0.9 0.7 0.9 1.1 0 0.5-0.8 0.8-1.7 0.8-3.2 0-7 2.2-7 4.1 0 0.9 0.5 1.7 1.4 2.8 1.1 1.3 2.1 2.8 2.1 4 0 0.8-0.7 1.8-1.4 2.3-0.9 0.5-2.6 1.3-3.8 1.7-0.7 0.2-1.4 0.4-1.9 0.4-0.8 0-2.2-0.4-2.3-1.2 0-0.3 0.2-0.6 0.6-0.9 0.6-0.6 1.2-0.9 1.7-1.1 0.4-0.1 0.7-0.1 1.1 0.1 0.5 0.2 1 0.3 1.8 0.2 0.6-0.1 1.3-0.6 1.3-1.1 0-0.6-0.5-1.5-1.1-2.2-0.7-1-1.6-2.1-2-2.8-0.3-0.5-0.5-1.2-0.5-1.8 0-1.7 1.7-3.6 3.4-4.9 1.6-1.1 3.7-1.8 5.4-1.8z"/>
					<path id="Layer" fill-rule="evenodd" class="s2" d="m486.2 138.9q1 0 2 0.4c0.4 0.2 0.5 0.2 0.7-0.2 2.5-5.1 4.9-10.4 5.6-11.7 0.4-0.6 0.7-0.8 1-0.8 0.3 0 0.7 0.2 1.2 0.7 0.4 0.6 0.5 1.1 0.1 1.9-0.6 1.2-2.7 4.9-4.6 9.2-1.7 3.8-2.9 8.1-3.2 11.3-0.2 2 0.3 2.9 1.2 2.9 2.7 0 8.5-6 9.8-7.5 0.5-0.5 0.9-0.6 1.1-0.2 0.1 0.3-0.1 0.9-0.5 1.5-2 3.1-7.9 8.7-11.9 8.7-1.9 0-2.7-2-2.5-3.9 0.2-1.8 0.4-2.8 0.7-4 0.1-0.4-0.1-0.3-0.4 0-2.1 2.4-5.4 5.1-6.7 5.9-2.3 1.5-4.5 2.3-5.3 2.3-0.9 0-2.1-0.5-2.1-2.6 0-2.3 2.2-6.9 5.6-10 3.1-2.8 6.1-3.9 8.2-3.9zm-1.1 2.1c-1.7 0-4.4 2.1-6.5 4.8-2.4 2.9-3 4.8-3 5.7 0 0.6 0.4 1 0.9 1 0.8 0 2.5-0.8 4.6-2.6 2.5-2.2 5.5-5.6 6.1-7.2 0.2-0.5 0.1-0.9-0.2-1.1-0.2-0.3-0.7-0.6-1.8-0.6z"/>
					<path id="Layer" fill-rule="evenodd" class="s2" d="m497.2 151.1v-0.1c0-1.8 1.4-5.2 3.7-8.1 0.9-1.2 4.1-4.8 6.1-4.8 0.8 0 1.2 0.5 1.2 0.9 0 0.1 0.2 0.3 0.6 0.4 1.3 0 2.3 0.9 2.3 2.3 0 1.4-0.7 3-1.8 4-1.6 1.4-3.6 2.6-6.5 2.6-0.5 0-1-0.1-1.3-0.4-0.2-0.1-0.4-0.1-0.5 0.2-0.3 0.5-0.7 1.7-0.7 2.6 0 1.5 1 2.2 2.5 2.2 2.7 0 7.7-1.6 14.2-7.4 0.4-0.4 0.8-0.4 1-0.1 0.1 0.4-0.1 0.9-0.6 1.5-4.8 5.4-11.7 8.4-16 8.4-2.1 0-4.2-1.5-4.2-4.2zm5.6-4.9c2.8 0 5.4-1.9 5.4-3.7 0-1.2-0.8-1.8-1.5-1.8-1.4 0-3.7 3.2-4.6 5-0.2 0.3-0.1 0.5 0.7 0.5z"/>
					<path id="Layer" fill-rule="evenodd" class="s1" d="m550.7 81v407.1h-530v-407.1zm-11.3 10.5h-507.4v361.4h507.4z"/>
				</g>
				<path id="Layer" class="s3" d="m107.6 171.7l0.3-0.2 5.6 5.1v1.7l1.2 1.5 3.4 9.3 2.1 1.5v2.7l6.4 10.7-0.1 11.8 2.8 1.9v2.5l8.4 15.2-0.1 15.7 3.5 2.9 0.1 3.1 16.4 26.1 2.3 109.2 19.4 4.1v18.8h-113.1v-6.3h-1.7l-2-210.5 10.7-6.4v-3.9l8.1-5-0.1-3.5 0.3-0.1 15.9-19.9 1.3-34.9h0.7l1.4 35 4.5 5.9v6.4 1z"/>
				<path id="Layer" class="s0" d="m74.7 189l29.2-18v2.9l-29.2 17.4zm32 218.6h-2.4l-0.8-13.8-37.3 2.5-2.4-196.8 42.9-25.2zm-4.3 0l-36 0.1-0.1-9.5 35.4-2.4zm11.5-21.6l-0.6-197.6 5.4 3.8 0.6 22 8.2 5.6 1.1 28.8 11.1 7.6 2.8 134.3zm-2.2-208.7l0.5 230.4h-3.6v-233.6zm-12.6-17.7l4.6 6-19.7 12.5z"/>
				<path id="Layer" class="s4" d="m65.2 205l40.3-22.6v8.5l-40.2 21.2zm2.7 177.9l37.6-2.5v8.2l-37.5 2zm-0.2-12.5l37.8-3.3v7.8l-37.7 2.9zm-0.2-13l38-4.8v8l-37.9 4.2zm-0.2-13.6l38.2-6v7.7l-38 5.7zm-0.2-12.2l38.4-7.7v8l-38.3 6.7zm-0.2-13.6l38.6-9.7v8l-38.5 9.4zm-0.2-12.3l38.8-10.7v8.2l-38.7 10.2zm-0.2-12.6l39-11.6v8.4l-38.9 10.8zm-0.1-12.4l39.1-13v8l-39 12zm-0.2-12.3l39.3-15v9.2l-39.2 13.7zm-0.2-12.1l39.5-16.5v7.9l-39.4 15.8zm-0.1-12l39.6-17.6v8.7l-39.5 16.9zm-0.2-13.4l39.9-18.7v8.9l-39.8 18.6zm-0.2-13.6l40.1-21v9.1l-40 19.4z"/>
				<path id="Layer" class="s5" d="m104 166.7v3l-21.2 12.6-0.1-2.4z"/>
				<path id="Layer" fill-rule="evenodd" class="s2" d="m206.4 303.5v4.6q-1.3-1.5-2.3-2.1-1-0.6-2.2-0.6-2.5 0-3.8 2.8-1.4 2.8-1.4 7.6 0 5.1 1.5 7.9 1.5 2.6 3.8 2.6 1.2 0 2.1-0.6 1-0.6 2.3-2.2v4.5q-1.5 0.8-2.6 1.1-1.2 0.4-2.6 0.4-4.6 0-6.9-3.5-2.4-3.5-2.4-10.3 0-4.5 1-7.2 2.4-6.2 8.7-6.2 2.6 0 4.8 1.2z"/>
				<path id="Layer" fill-rule="evenodd" class="s2" d="m228.1 302.3q4.1 0 6.5 2.9 2.9 3.5 2.9 10.6 0 6.9-2.6 10.4-2.5 3.3-6.9 3.3-3.1 0-5-1.5-2.4-1.8-3.5-5.6-0.8-2.8-0.8-6.8 0-4.4 1.2-7.5 2.3-5.7 8.2-5.8zm0 2.8q-4.6 0-4.6 10.6 0 2.8 0.2 4.7 0.3 1.8 0.8 3.3 1.1 2.9 3.6 2.9 2.3 0 3.4-2.7 1.2-2.6 1.2-7.9 0-5.3-1.1-8-1.1-2.8-3.5-2.9z"/>
				<path id="Layer" fill-rule="evenodd" class="s2" d="m253.3 310.4v17.4q0.1 0.7 0.2 1.2h-2.4q0.2-0.5 0.2-1.2v-23.8q0-0.8-0.2-1.3h4.1q0.1 0.4 0.4 1.1l9 17.5v-17.3q-0.1-0.8-0.2-1.3h2.4q-0.2 0.4-0.2 1.3v23.8q0 0.7 0.2 1.2h-4q-0.1-0.3-0.5-1.1z"/>
				<path id="Layer" fill-rule="evenodd" class="s2" d="m280 327.4l0.8-4.2q0.8 1 1.3 1.5 1.5 1.5 3.2 1.5 1.4 0 2.2-1.1 0.7-1 0.7-2.5 0-1.8-1-2.8-0.5-0.5-2.7-1.9-2.4-1.5-3.4-3.2-1-1.9-1-4.4 0-2.4 0.9-4.3 1.8-3.7 5.8-3.7 2.4 0 4.8 1.5l-0.7 3.9q-2.3-2.4-4.1-2.4-1 0-1.7 0.9-0.7 0.9-0.7 2.2 0 1.4 0.7 2.1 0.6 0.8 3 2.2 2.6 1.6 3.5 3.4 0.9 1.9 0.9 4.5 0 2.6-0.8 4.7-1.8 4.2-6.1 4.2-1.5 0-2.8-0.5-1.2-0.5-2.8-1.6z"/>
				<path id="Layer" fill-rule="evenodd" class="s2" d="m304.1 302.7h14v3.4q-0.6-0.1-1.1-0.1h-3.6v21.8q0 0.7 0.1 1.2h-4.9q0.2-0.5 0.2-1.2v-21.8h-3.5q-0.6 0-1.2 0.1c0 0 0-3.4 0-3.4z"/>
				<path id="Layer" fill-rule="evenodd" class="s2" d="m335.1 317.2v10.6q0 0.7 0.2 1.2h-4.9q0.1-0.4 0.1-1.2v-23.8q0-0.7-0.1-1.3h7.3q2.2 0 3.7 1.5 2 2.1 2 5.8 0 2.6-1 4.3-0.8 1.4-2.9 2.5l4.7 11.1q0.4 0.8 0.7 1.1h-5.6q0-0.6-0.2-1.2zm0-2h0.9q1.1 0 1.7-0.9 1-1.4 1-3.9 0-2.2-0.7-3.6-0.8-1.3-2-1.3h-0.9z"/>
				<path id="Layer" fill-rule="evenodd" class="s2" d="m372.6 302.7q-0.1 0.6-0.1 1.3v16q0 3.4-1.3 5.8-1.9 3.7-6.5 3.7-2.8 0-4.5-1.4-3.1-2.5-3.1-8.2v-15.9q0-0.7-0.1-1.3h4.9q-0.2 0.6-0.2 1.3v16.2q0 2.5 0.8 4 1.2 2.1 3.4 2.1 2.2 0 3.4-1.7 1.1-1.7 1.1-4.9v-15.7q0-0.8-0.1-1.3c0 0 2.3 0 2.3 0z"/>
				<path id="Layer" fill-rule="evenodd" class="s2" d="m400.5 303.5v4.6q-1.3-1.5-2.3-2.1-1-0.6-2.2-0.6-2.4 0-3.8 2.8-1.4 2.8-1.4 7.6 0 5.1 1.6 7.9 1.4 2.6 3.8 2.6 1.1 0 2-0.6 1-0.6 2.3-2.2v4.5q-1.4 0.8-2.6 1.1-1.1 0.4-2.6 0.4-4.6 0-6.9-3.5-2.4-3.5-2.4-10.3 0-4.5 1-7.2 2.4-6.2 8.7-6.2 2.6 0 4.8 1.2z"/>
				<path id="Layer" fill-rule="evenodd" class="s2" d="m411.7 302.7h14v3.4q-0.6-0.1-1.1-0.1h-3.6v21.8q0 0.7 0.1 1.2h-4.9q0.2-0.5 0.2-1.2v-21.8h-3.5q-0.6 0-1.2 0.1z"/>
				<path id="Layer" fill-rule="evenodd" class="s2" d="m446.4 302.3q4 0 6.5 2.9 2.9 3.5 2.9 10.6 0 6.9-2.7 10.4-2.4 3.3-6.9 3.3-3.1 0-5-1.5-2.4-1.8-3.5-5.6-0.8-2.8-0.8-6.8 0-4.4 1.3-7.5 2.2-5.7 8.2-5.8zm0 2.8q-4.7 0-4.7 10.6 0 2.8 0.3 4.7 0.2 1.8 0.8 3.3 1.1 2.9 3.6 2.9 2.2 0 3.4-2.7 1.1-2.6 1.2-7.9 0-5.3-1.1-8-1.2-2.8-3.5-2.9z"/>
				<path id="Layer" fill-rule="evenodd" class="s2" d="m474.2 317.2v10.6q-0.1 0.7 0.1 1.2h-4.9q0.1-0.4 0.1-1.2v-23.8q0-0.7-0.1-1.3h7.3q2.2 0 3.7 1.5 2 2.1 2 5.8 0 2.6-1 4.3-0.8 1.4-2.9 2.5l4.7 11.1q0.4 0.8 0.7 1.1h-5.5q-0.1-0.6-0.3-1.2zm0-2h0.9q1.1 0 1.7-0.9 1-1.4 1-3.9 0-2.2-0.7-3.6-0.8-1.3-2-1.3h-0.9c0 0 0 9.7 0 9.7z"/>
				<path id="Layer" fill-rule="evenodd" class="s2" d="m498.6 321.6l-1.5 6.2q-0.2 0.6-0.2 0.9 0 0.1 0.1 0.3h-2.6q0.3-0.5 0.5-1.2l5.9-23.9q0.1-0.6 0.1-1 0 0 0-0.2h3.9q0 0.4 0.2 1.1l6.1 24q0.1 0.7 0.5 1.2h-5.3q0-0.1 0-0.2 0-0.4-0.1-1l-1.5-6.2zm0.7-3h4.6l-2.3-9.8z"/>
				<path id="Layer" class="s6" d="m192.6 338.7h318.2"/>
				<g id="Layer">
					<path id="Layer" fill-rule="evenodd" class="s2" d="m253.1 397.3l-4.3 14.9c-0.3 0.8-0.4 1.5-0.4 2.1q0 0.2 0 0.7h-7q0.7-1.2 1.2-2.8l16.6-56.7q0.4-1.3 0.4-2.2 0-0.2 0-0.5h11c0 0.6 0.1 1.5 0.4 2.5l17 56.9c0.4 1 0.8 1.9 1.4 2.8h-14.8q0-0.4 0-0.6 0-0.9-0.4-2.2l-4.1-14.9c0 0-17 0-17 0zm2-6.9h13l-6.5-23.2z"/>
					<path id="Layer" fill-rule="evenodd" class="s2" d="m441.2 397.3l-4.3 14.9q-0.4 1.2-0.4 2.1 0 0.2 0.1 0.7h-7.1q0.8-1.2 1.2-2.8l16.7-56.7q0.3-1.3 0.3-2.2 0-0.2 0-0.5h11q0 1 0.4 2.5l17 56.9q0.5 1.5 1.4 2.8h-14.8q0.1-0.4 0-0.6 0-0.9-0.3-2.2l-4.2-14.9c0 0-17 0-17 0zm2-6.9h13l-6.5-23.2z"/>
					<path id="Layer" fill-rule="evenodd" class="s1" d="m251.8 398l-4.3 14.8q-0.4 1.3-0.4 2.1 0 0.3 0.1 0.8h-7.1q0.8-1.3 1.3-2.9l16.6-56.7q0.4-1.3 0.4-2.1 0-0.2 0-0.6h10.9q0 1 0.5 2.6l17 56.8q0.5 1.5 1.4 2.9h-14.8q0-0.4 0-0.7 0-0.9-0.4-2.2l-4.2-14.8c0 0-17 0-17 0zm2-6.9h13.1l-6.6-23.2z"/>
					<path id="Layer" fill-rule="evenodd" class="s1" d="m440 398l-4.4 14.8q-0.3 1.3-0.3 2.1 0 0.3 0 0.8h-7q0.7-1.3 1.2-2.9l16.6-56.7q0.4-1.3 0.4-2.1 0-0.2 0-0.6h11q-0.1 1 0.4 2.6l17 56.8q0.5 1.5 1.4 2.9h-14.8q0-0.4 0-0.7c0-0.6-0.1-1.3-0.4-2.2l-4.1-14.8c0 0-17 0-17 0zm2-6.9h13l-6.5-23.2z"/>
					<path id="Layer" fill-rule="evenodd" class="s2" d="m199.4 371v41q0 1.8 0.4 3h-6.7q0.4-1.3 0.4-3v-56.2q0-1.9-0.4-3h11.5q0.2 1 1.1 2.6l25.1 41.3v-40.9q0-1.8-0.4-3h6.6q-0.4 0.9-0.4 3v56.3q0 1.7 0.4 2.9h-11.2q-0.2-0.9-1.3-2.7z"/>
					<path id="Layer" fill-rule="evenodd" class="s2" d="m306.6 386.5v25.5q0 1.9 0.4 3h-13.8q0.4-1.1 0.4-3v-56.2q0-1.8-0.4-3h13.8q-0.4 1.4-0.4 3v23.8h17.4v-23.8q0-1.6-0.4-3h13.7q-0.4 1.1-0.4 3v56.2q0 1.9 0.4 3h-13.7c0.2-0.8 0.4-1.7 0.4-3v-25.5z"/>
					<path id="Layer" fill-rule="evenodd" class="s2" d="m354.4 373.7l-4.5 38.4q-0.1 0.5-0.1 0.6 0 0.7 0.3 2.3h-7q0.6-1.5 0.8-3l6.9-56.3q0.1-0.8 0.1-1.4 0-0.6-0.1-1.5h11.5q0 0.5 0 0.6 0 0.9 0.3 2.1l11.8 42.2 11.9-42.3q0.4-1.3 0.4-2 0-0.2-0.1-0.6h11.3q0 0.9 0 1.3 0 0.7 0 1.3l6.5 56.7q0.2 1.4 0.8 2.9h-13.8q0.1-0.8 0.1-1.4 0.1-0.4-0.1-1.4l-4-39-10.9 38.9c-0.3 1-0.5 1.7-0.5 2.2q0 0.3 0.1 0.7h-10.5q0-0.4 0-0.6 0-0.8-0.3-2.1z"/>
					<path id="Layer" fill-rule="evenodd" class="s2" d="m411.6 352.8h13.7q-0.4 1.1-0.4 3v56.2q0 1.9 0.4 3h-13.7q0.4-1.2 0.4-3v-56.2q0-1.8-0.4-3z"/>
					<path id="Layer" fill-rule="evenodd" class="s2" d="m478.3 411.1l2.2-9.9c1.6 1.6 2.9 2.8 3.8 3.6q4.2 3.5 8.9 3.5 3.9 0 6.1-2.5 2.2-2.4 2.2-6 0-4.2-3-6.7-1.4-1.1-7.6-4.4-6.7-3.5-9.3-7.6-2.9-4.5-2.9-10.4 0-5.6 2.6-10.1 4.9-8.8 16.2-8.8 6.7 0 13.4 3.5l-1.9 9.2q-6.5-5.6-11.5-5.6c-1.9 0-3.5 0.7-4.8 2.1q-2 2-2 5.2 0 3.3 1.9 5.1 1.8 1.8 8.6 5.2 7.1 3.6 9.7 8 2.7 4.5 2.7 10.6-0.1 6.1-2.5 11.1-4.9 9.8-17 9.8-4.3 0-7.8-1.1-3.4-1.1-8-3.8z"/>
					<path id="Layer" fill-rule="evenodd" class="s1" d="m198.1 371.6v41q0.1 1.9 0.4 3.1h-6.6q0.4-1.4 0.4-3.1v-56.1q-0.1-1.9-0.4-3.1h11.4c0.2 0.7 0.5 1.6 1.2 2.7l25.1 41.2v-40.8q0-1.8-0.4-3.1h6.6q-0.4 0.9-0.4 3.1v56.2q0 1.7 0.4 3h-11.2q-0.2-0.9-1.3-2.8z"/>
					<path id="Layer" fill-rule="evenodd" class="s1" d="m305.3 387.2v25.5q0.1 1.9 0.4 3h-13.7q0.4-1.2 0.4-3v-56.2q0-1.9-0.4-3.1h13.7q-0.4 1.5-0.4 3.1v23.8h17.4v-23.8q0-1.6-0.4-3.1h13.8q-0.4 1.2-0.5 3.1v56.2q0.1 1.9 0.5 3h-13.8q0.4-1.2 0.4-3v-25.5z"/>
					<path id="Layer" fill-rule="evenodd" class="s1" d="m353.2 374.4l-4.6 38.4q0 0.4 0 0.5 0 0.8 0.3 2.4h-7c0.4-1.1 0.6-2.1 0.7-3l7-56.3q0.1-0.8 0.1-1.4 0-0.6-0.1-1.6h11.5q-0.1 0.5-0.1 0.7c0 0.6 0.1 1.3 0.4 2.1l11.7 42.1 11.9-42.3q0.4-1.3 0.4-2 0-0.1 0-0.6h11.3q-0.1 1-0.1 1.3 0 0.8 0.1 1.4l6.5 56.7q0.2 1.4 0.8 2.9h-13.8q0.1-0.8 0.1-1.4 0-0.5-0.1-1.5l-4-39-11 39q-0.4 1.4-0.4 2.2 0 0.2 0 0.7h-10.4q0-0.4 0-0.7 0-0.7-0.4-2.1z"/>
					<path id="Layer" fill-rule="evenodd" class="s1" d="m410.3 353.4h13.7q-0.3 1.1-0.4 3.1v56.1q0.1 2 0.4 3.1h-13.7q0.4-1.3 0.4-3.1v-56.1q0-1.9-0.4-3.1z"/>
					<path id="Layer" fill-rule="evenodd" class="s1" d="m477.1 411.8l2.2-9.9c1.6 1.5 2.8 2.7 3.8 3.5 2.8 2.4 5.8 3.6 8.9 3.6q3.8 0 6-2.5 2.2-2.5 2.2-6.1 0-4.1-2.9-6.6-1.4-1.2-7.6-4.5-6.8-3.5-9.3-7.5-2.9-4.6-2.9-10.4 0-5.6 2.5-10.2 4.9-8.8 16.3-8.8 6.7 0 13.4 3.6l-1.9 9.2q-6.5-5.7-11.5-5.7-2.9 0-4.9 2.1-1.9 2.1-1.9 5.2 0 3.3 1.8 5.1c1.3 1.2 4.1 3 8.6 5.2q7.2 3.7 9.8 8.1 2.6 4.5 2.6 10.6 0 6.1-2.5 11-4.9 9.9-17 9.9-4.2 0-7.7-1.1-3.5-1.1-8-3.8z"/>
				</g>
			</g>
		</g>
		<g id="Layer">
			<g id="Layer">
				<path id="Layer" class="s0" d="m38.2 462q1.5 0 2.6 0.5 1.1 0.6 1.9 1.6l-1.4 1.6q-0.6-0.8-1.4-1.2-0.7-0.4-1.6-0.4-1 0-1.8 0.6-0.7 0.5-1.2 1.6-0.5 1-0.8 2.3-0.2 1.3-0.2 2.8 0 1.6 0.3 2.9 0.2 1.4 0.7 2.3 0.6 1 1.4 1.6 0.8 0.5 1.8 0.5 1.5 0 2.2-0.6v-5.6h-2.4v-1.9h4.6v8.8q-0.8 0.6-1.8 1-1.1 0.4-2.6 0.4-1.6 0-2.8-0.7-1.2-0.6-2.1-1.9-0.8-1.2-1.3-2.9-0.4-1.8-0.4-3.9 0-2 0.4-3.7 0.4-1.8 1.2-3 0.9-1.3 2.1-2 1.1-0.7 2.6-0.7z"/>
				<path id="Layer" class="s0" d="m61.8 480.5v-18.1h7.6v2.1h-5.4v5.6h5v2h-5v6.3h5.6v2.1z"/>
				<path id="Layer" class="s0" d="m96.1 475.7q0 1.2-0.4 2.2-0.4 1-1 1.6-0.7 0.7-1.6 1.1-0.9 0.3-1.9 0.3-1.4 0-2.6-0.6-1.2-0.5-2-1.5l1.4-1.6q0.6 0.7 1.4 1.2 0.9 0.4 1.8 0.4 1.2 0 1.9-0.8 0.7-0.7 0.7-2.2 0-0.7-0.2-1.2-0.2-0.5-0.6-0.9-0.4-0.5-1-0.8-0.5-0.4-1.1-0.7-0.7-0.3-1.4-0.8-0.6-0.4-1.1-1-0.5-0.6-0.8-1.4-0.3-0.8-0.3-1.9 0-1.3 0.4-2.3 0.4-0.9 1.1-1.6 0.6-0.6 1.5-0.9 0.9-0.3 1.8-0.3 1.3 0 2.3 0.4 1 0.5 1.7 1.3l-1.4 1.6q-0.9-1.2-2.6-1.2-0.4 0-0.9 0.1-0.5 0.2-0.9 0.6-0.4 0.3-0.6 0.9-0.2 0.6-0.2 1.4 0 0.6 0.2 1.1 0.2 0.5 0.6 0.9 0.4 0.4 0.8 0.8 0.5 0.3 1.1 0.6 0.7 0.3 1.4 0.8 0.7 0.4 1.2 1 0.6 0.6 0.9 1.5 0.4 0.8 0.4 1.9z"/>
				<path id="Layer" class="s0" d="m118 464.4v16.1h-2.3v-16.1h-3.4v-2h9.2v2z"/>
				<path id="Layer" class="s0" d="m138.7 480.5v-18.1h2.3v18.1z"/>
				<path id="Layer" fill-rule="evenodd" class="s0" d="m171.9 471.4q0 2.1-0.4 3.9-0.5 1.7-1.3 3-0.8 1.2-1.9 1.9-1.1 0.7-2.6 0.7-1.5 0-2.6-0.7-1.1-0.7-2-1.9-0.8-1.3-1.2-3-0.4-1.8-0.4-3.9 0-2.1 0.4-3.8 0.4-1.8 1.2-3 0.8-1.3 2-1.9 1.1-0.7 2.6-0.7 1.5 0 2.6 0.7 1.1 0.6 1.9 1.9 0.8 1.2 1.3 3 0.4 1.7 0.4 3.8zm-2.4 0q0-1.5-0.3-2.9-0.2-1.3-0.7-2.3-0.5-1-1.2-1.6-0.7-0.6-1.6-0.6-0.9 0-1.7 0.6-0.7 0.6-1.1 1.6-0.5 1-0.7 2.3-0.3 1.4-0.3 2.9 0 1.5 0.3 2.9 0.2 1.4 0.7 2.3 0.4 1 1.1 1.6 0.8 0.6 1.7 0.6 0.9 0 1.6-0.6 0.7-0.6 1.2-1.6 0.5-0.9 0.7-2.3 0.3-1.4 0.3-2.9zm-3-10.4h-1.7l2.3-3.7h2.1z"/>
				<path id="Layer" class="s0" d="m198.3 480.5l-5.7-14h-0.1v14h-2.1v-18.1h2.7l5.7 14h0.1v-14h2.1v18.1z"/>
				<path id="Layer" class="s0" d="m240.4 480.5v-18.1h2.3v18.1z"/>
				<path id="Layer" class="s0" d="m270 480.5l-5.8-14h-0.1v14h-2.1v-18.1h2.7l5.7 14h0.1v-14h2.1v18.1z"/>
				<path id="Layer" class="s0" d="m304.3 480.5v-15h-0.1l-4 15h-2.1l-4-15h-0.1v15h-2.1v-18.1h3.4l3.8 14.4h0.2l3.7-14.4h3.6v18.1z"/>
				<path id="Layer" fill-rule="evenodd" class="s0" d="m337.4 471.4q0 2.1-0.4 3.9-0.4 1.7-1.2 3-0.9 1.2-2 1.9-1.1 0.7-2.6 0.7-1.4 0-2.6-0.7-1.1-0.7-1.9-1.9-0.8-1.3-1.3-3-0.4-1.8-0.4-3.9 0-2.1 0.4-3.8 0.4-1.8 1.2-3 0.8-1.3 2-1.9 1.1-0.7 2.6-0.7 1.5 0 2.6 0.7 1.1 0.6 1.9 1.9 0.9 1.2 1.3 3 0.4 1.7 0.4 3.8zm-2.4 0q0-1.5-0.3-2.9-0.2-1.3-0.7-2.3-0.5-1-1.2-1.6-0.7-0.6-1.6-0.6-0.9 0-1.6 0.6-0.7 0.6-1.2 1.6-0.5 1-0.7 2.3-0.3 1.4-0.3 2.9 0 1.5 0.3 2.9 0.2 1.4 0.7 2.3 0.5 1 1.2 1.6 0.7 0.6 1.6 0.6 0.9 0 1.6-0.6 0.7-0.6 1.2-1.6 0.5-0.9 0.7-2.3 0.3-1.4 0.3-2.9z"/>
				<path id="Layer" fill-rule="evenodd" class="s0" d="m362.5 471q0.5 0.1 1.1 0.4 0.5 0.3 1 0.8 0.4 0.6 0.8 1.4 0.3 0.8 0.3 1.9 0 1.4-0.5 2.3-0.5 1-1.2 1.6-0.7 0.6-1.6 0.8-0.8 0.3-1.7 0.3h-4.8v-18.1h4.3q0.8 0 1.6 0.2 0.9 0.2 1.6 0.7 0.7 0.5 1.2 1.4 0.4 0.9 0.4 2.2 0 0.9-0.2 1.5-0.2 0.7-0.5 1.2-0.4 0.5-0.8 0.8-0.5 0.4-1 0.5c0 0 0 0.1 0 0.1zm0.4-3.8q0-0.8-0.3-1.3-0.2-0.6-0.6-0.9-0.4-0.4-1-0.5-0.5-0.2-1.1-0.2h-1.9v5.9h2q0.5 0 1-0.2 0.5-0.2 1-0.5 0.4-0.4 0.6-0.9 0.3-0.6 0.3-1.4zm0.5 8.2q0-1-0.3-1.6-0.3-0.7-0.8-1.1-0.4-0.4-1-0.5-0.6-0.2-1.2-0.2h-2.1v6.6h2.2q0.7 0 1.3-0.2 0.5-0.2 1-0.6 0.4-0.4 0.6-1 0.3-0.6 0.3-1.4z"/>
				<path id="Layer" class="s0" d="m383.9 480.5v-18.1h2.3v18.1z"/>
				<path id="Layer" class="s0" d="m405.5 480.5v-18.1h2.3v15.9h5.1v2.2z"/>
				<path id="Layer" class="s0" d="m430.3 480.5v-18.1h2.3v18.1z"/>
				<path id="Layer" fill-rule="evenodd" class="s0" d="m459.7 480.5l-1-4.3h-5.2l-1.1 4.3h-2.3l4.6-18.1h3l4.4 18.1zm-3.5-15.9h-0.1l-2.3 9.8h4.6z"/>
				<path id="Layer" fill-rule="evenodd" class="s0" d="m487 480.5l-3-8.1h-2.1v8.1h-2.3v-18.1h4.7q1 0 1.9 0.3 0.9 0.3 1.5 0.8 0.7 0.6 1.1 1.6 0.4 0.9 0.4 2.2 0 1.1-0.3 2-0.3 0.8-0.8 1.3-0.4 0.6-0.9 0.9-0.6 0.4-1.1 0.5l3.4 8.5zm-0.2-13.1q0-0.9-0.2-1.5-0.3-0.6-0.7-0.9-0.4-0.4-0.9-0.5-0.6-0.2-1.1-0.2h-2.1v6.3h2.2q1.3 0 2.1-0.8 0.7-0.8 0.7-2.4z"/>
				<path id="Layer" class="s0" d="m507.5 480.5v-18.1h2.3v18.1z"/>
				<path id="Layer" fill-rule="evenodd" class="s0" d="m536.9 480.5l-1-4.3h-5.3l-1 4.3h-2.3l4.5-18.1h3l4.5 18.1zm-3.6-15.9h-0.1l-2.3 9.8h4.7z"/>
			</g>
		</g>
	</g>
</svg>